<svg id="SvgjsSvg1000" xmlns="http://www.w3.org/2000/svg" version="1.1" xmlns:xlink="http://www.w3.org/1999/xlink" xmlns:svgjs="http://svgjs.com/svgjs" width="635.75" height="945.5"><defs id="SvgjsDefs1001"><marker id="SvgjsMarker1021" markerWidth="14" markerHeight="10" refX="10" refY="5" viewBox="0 0 14 10" orient="auto" markerUnits="userSpaceOnUse" stroke-dasharray="0,0"><path id="SvgjsPath1022" d="M0 0L14 5L0 10L0 0 " fill="#323232" stroke="#323232" stroke-width="1"></path></marker><marker id="SvgjsMarker1043" markerWidth="14" markerHeight="10" refX="10" refY="5" viewBox="0 0 14 10" orient="auto" markerUnits="userSpaceOnUse" stroke-dasharray="0,0"><path id="SvgjsPath1044" d="M0 0L14 5L0 10L0 0 " fill="#323232" stroke="#323232" stroke-width="1"></path></marker><marker id="SvgjsMarker1053" markerWidth="14" markerHeight="10" refX="10" refY="5" viewBox="0 0 14 10" orient="auto" markerUnits="userSpaceOnUse" stroke-dasharray="0,0"><path id="SvgjsPath1054" d="M0 0L14 5L0 10L0 0 " fill="#323232" stroke="#323232" stroke-width="1"></path></marker><marker id="SvgjsMarker1057" markerWidth="14" markerHeight="10" refX="10" refY="5" viewBox="0 0 14 10" orient="auto" markerUnits="userSpaceOnUse" stroke-dasharray="0,0"><path id="SvgjsPath1058" d="M0 0L14 5L0 10L0 0 " fill="#323232" stroke="#323232" stroke-width="1"></path></marker><marker id="SvgjsMarker1061" markerWidth="14" markerHeight="10" refX="10" refY="5" viewBox="0 0 14 10" orient="auto" markerUnits="userSpaceOnUse" stroke-dasharray="0,0"><path id="SvgjsPath1062" d="M0 0L14 5L0 10L0 0 " fill="#323232" stroke="#323232" stroke-width="1"></path></marker><marker id="SvgjsMarker1083" markerWidth="14" markerHeight="10" refX="10" refY="5" viewBox="0 0 14 10" orient="auto" markerUnits="userSpaceOnUse" stroke-dasharray="0,0"><path id="SvgjsPath1084" d="M0 0L14 5L0 10L0 0 " fill="#323232" stroke="#323232" stroke-width="1"></path></marker><marker id="SvgjsMarker1087" markerWidth="14" markerHeight="10" refX="10" refY="5" viewBox="0 0 14 10" orient="auto" markerUnits="userSpaceOnUse" stroke-dasharray="0,0"><path id="SvgjsPath1088" d="M0 0L14 5L0 10L0 0 " fill="#323232" stroke="#323232" stroke-width="1"></path></marker><marker id="SvgjsMarker1091" markerWidth="14" markerHeight="10" refX="10" refY="5" viewBox="0 0 14 10" orient="auto" markerUnits="userSpaceOnUse" stroke-dasharray="0,0"><path id="SvgjsPath1092" d="M0 0L14 5L0 10L0 0 " fill="#323232" stroke="#323232" stroke-width="1"></path></marker></defs><g id="SvgjsG1007" transform="translate(331,25)"><path id="SvgjsPath1008" d="M0 4Q0 0 4 0L96 0Q100 0 100 4L100 66Q100 70 96 70L4 70Q0 70 0 66Z " stroke="rgba(50,50,50,1)" stroke-width="2" fill-opacity="1" fill="#ffffff"></path><g id="SvgjsG1009"><text id="SvgjsText1010" font-family="微软雅黑" text-anchor="middle" font-size="13px" width="80px" fill="#323232" font-weight="700" align="middle" lineHeight="125%" font-style="" opacity="1" y="24.375" transform="rotate(0)"><tspan id="SvgjsTspan1011" dy="16" x="50"><tspan id="SvgjsTspan1012" style="text-decoration:;">INPUT</tspan></tspan></text></g></g><g id="SvgjsG1013" transform="translate(308.5,135)"><path id="SvgjsPath1014" d="M0 4Q0 0 4 0L141 0Q145 0 145 4L145 57Q145 61 141 61L4 61Q0 61 0 57Z " stroke="rgba(50,50,50,1)" stroke-width="2" fill-opacity="1" fill="#fff9c4"></path><g id="SvgjsG1015"><text id="SvgjsText1016" font-family="微软雅黑" text-anchor="middle" font-size="13px" width="125px" fill="#323232" font-weight="700" align="middle" lineHeight="125%" font-style="" opacity="1" y="19.875" transform="rotate(0)"><tspan id="SvgjsTspan1017" dy="16" x="72.5"><tspan id="SvgjsTspan1018" style="text-decoration:;">Conv1d(128)</tspan></tspan></text></g></g><g id="SvgjsG1019"><path id="SvgjsPath1020" d="M381 96L381 115L381 115L381 131.4 " stroke="#323232" stroke-width="2" fill="none" marker-end="url(#SvgjsMarker1021)"></path></g><g id="SvgjsG1023" transform="translate(308.5,236)"><path id="SvgjsPath1024" d="M0 4Q0 0 4 0L141 0Q145 0 145 4L145 57Q145 61 141 61L4 61Q0 61 0 57Z " stroke="rgba(50,50,50,1)" stroke-width="2" fill-opacity="1" fill="#fff9c4"></path><g id="SvgjsG1025"><text id="SvgjsText1026" font-family="微软雅黑" text-anchor="middle" font-size="13px" width="125px" fill="#323232" font-weight="700" align="middle" lineHeight="125%" font-style="" opacity="1" y="19.875" transform="rotate(0)"><tspan id="SvgjsTspan1027" dy="16" x="72.5"><tspan id="SvgjsTspan1028" style="text-decoration:;">Conv1d(256)</tspan></tspan></text></g></g><g id="SvgjsG1029" transform="translate(308.5,337)"><path id="SvgjsPath1030" d="M0 4Q0 0 4 0L141 0Q145 0 145 4L145 57Q145 61 141 61L4 61Q0 61 0 57Z " stroke="rgba(50,50,50,1)" stroke-width="2" fill-opacity="1" fill="#bbdefb"></path><g id="SvgjsG1031"><text id="SvgjsText1032" font-family="微软雅黑" text-anchor="middle" font-size="13px" width="125px" fill="#323232" font-weight="700" align="middle" lineHeight="125%" font-style="" opacity="1" y="19.875" transform="rotate(0)"><tspan id="SvgjsTspan1033" dy="16" x="72.5"><tspan id="SvgjsTspan1034" style="text-decoration:;">Bi-LSTM(1024)</tspan></tspan></text></g></g><g id="SvgjsG1035" transform="translate(308.5,438)"><path id="SvgjsPath1036" d="M0 4Q0 0 4 0L141 0Q145 0 145 4L145 57Q145 61 141 61L4 61Q0 61 0 57Z " stroke="rgba(50,50,50,1)" stroke-width="2" fill-opacity="1" fill="#bbdefb"></path><g id="SvgjsG1037"><text id="SvgjsText1038" font-family="微软雅黑" text-anchor="middle" font-size="13px" width="125px" fill="#323232" font-weight="700" align="middle" lineHeight="125%" font-style="" opacity="1" y="19.875" transform="rotate(0)"><tspan id="SvgjsTspan1039" dy="16" x="72.5"><tspan id="SvgjsTspan1040" style="text-decoration:;">Bi-LSTM-4(512)</tspan></tspan></text></g></g><g id="SvgjsG1041"><path id="SvgjsPath1042" d="M381 399L381 418L381 418L381 434.4 " stroke="#323232" stroke-width="2" fill="none" marker-end="url(#SvgjsMarker1043)"></path></g><g id="SvgjsG1045" transform="translate(308.5,539)"><path id="SvgjsPath1046" d="M0 4Q0 0 4 0L141 0Q145 0 145 4L145 57Q145 61 141 61L4 61Q0 61 0 57Z " stroke="rgba(50,50,50,1)" stroke-width="2" fill-opacity="1" fill="#bbdefb"></path><g id="SvgjsG1047"><text id="SvgjsText1048" font-family="微软雅黑" text-anchor="middle" font-size="13px" width="125px" fill="#323232" font-weight="700" align="middle" lineHeight="125%" font-style="" opacity="1" y="19.875" transform="rotate(0)"><tspan id="SvgjsTspan1049" dy="16" x="72.5"><tspan id="SvgjsTspan1050" style="text-decoration:;">Bi-LSTM(256)</tspan></tspan></text></g></g><g id="SvgjsG1051"><path id="SvgjsPath1052" d="M381 298L381 317L381 317L381 333.4 " stroke="#323232" stroke-width="2" fill="none" marker-end="url(#SvgjsMarker1053)"></path></g><g id="SvgjsG1055"><path id="SvgjsPath1056" d="M381 197L381 216L381 216L381 232.39999999999998 " stroke="#323232" stroke-width="2" fill="none" marker-end="url(#SvgjsMarker1057)"></path></g><g id="SvgjsG1059"><path id="SvgjsPath1060" d="M381 500L381 519L381 519L381 535.4 " stroke="#323232" stroke-width="2" fill="none" marker-end="url(#SvgjsMarker1061)"></path></g><g id="SvgjsG1063" transform="translate(308.5,640)"><path id="SvgjsPath1064" d="M0 4Q0 0 4 0L141 0Q145 0 145 4L145 57Q145 61 141 61L4 61Q0 61 0 57Z " stroke="rgba(50,50,50,1)" stroke-width="2" fill-opacity="1" fill="#e1bee7"></path><g id="SvgjsG1065"><text id="SvgjsText1066" font-family="微软雅黑" text-anchor="middle" font-size="13px" width="125px" fill="#323232" font-weight="700" align="middle" lineHeight="125%" font-style="" opacity="1" y="19.875" transform="rotate(0)"><tspan id="SvgjsTspan1067" dy="16" x="72.5"><tspan id="SvgjsTspan1068" style="text-decoration:;">Reshape</tspan></tspan></text></g></g><g id="SvgjsG1069" transform="translate(308.5,741)"><path id="SvgjsPath1070" d="M0 4Q0 0 4 0L141 0Q145 0 145 4L145 57Q145 61 141 61L4 61Q0 61 0 57Z " stroke="rgba(50,50,50,1)" stroke-width="2" fill-opacity="1" fill="#ffcdd2"></path><g id="SvgjsG1071"><text id="SvgjsText1072" font-family="微软雅黑" text-anchor="middle" font-size="13px" width="125px" fill="#323232" font-weight="700" align="middle" lineHeight="125%" font-style="" opacity="1" y="19.875" transform="rotate(0)"><tspan id="SvgjsTspan1073" dy="16" x="72.5"><tspan id="SvgjsTspan1074" style="text-decoration:;">Linear(128)</tspan></tspan></text></g></g><g id="SvgjsG1075" transform="translate(308.5,842)"><path id="SvgjsPath1076" d="M0 4Q0 0 4 0L141 0Q145 0 145 4L145 57Q145 61 141 61L4 61Q0 61 0 57Z " stroke="rgba(50,50,50,1)" stroke-width="2" fill-opacity="1" fill="#ffcdd2"></path><g id="SvgjsG1077"><text id="SvgjsText1078" font-family="微软雅黑" text-anchor="middle" font-size="13px" width="125px" fill="#323232" font-weight="700" align="middle" lineHeight="125%" font-style="" opacity="1" y="19.875" transform="rotate(0)"><tspan id="SvgjsTspan1079" dy="16" x="72.5"><tspan id="SvgjsTspan1080" style="text-decoration:;">Linear(1)</tspan></tspan></text></g></g><g id="SvgjsG1081"><path id="SvgjsPath1082" d="M381 702L381 721L381 721L381 737.4 " stroke="#323232" stroke-width="2" fill="none" marker-end="url(#SvgjsMarker1083)"></path></g><g id="SvgjsG1085"><path id="SvgjsPath1086" d="M381 803L381 822L381 822L381 838.4 " stroke="#323232" stroke-width="2" fill="none" marker-end="url(#SvgjsMarker1087)"></path></g><g id="SvgjsG1089"><path id="SvgjsPath1090" d="M381 601L381 620L381 620L381 636.4 " stroke="#323232" stroke-width="2" fill="none" marker-end="url(#SvgjsMarker1091)"></path></g><g id="SvgjsG1093" transform="translate(151.75,107.5)"><path id="SvgjsPath1094" d="M0 4Q0 0 4 0L454.5 0Q458.5 0 458.5 4L458.5 203Q458.5 207 454.5 207L4 207Q0 207 0 203Z " stroke-dasharray="10,6" stroke="rgba(50,50,50,0.15)" stroke-width="2" fill-opacity="0.15" fill="#ffffff"></path><g id="SvgjsG1095"><text id="SvgjsText1096" font-family="微软雅黑" text-anchor="middle" font-size="13px" width="439px" fill="#323232" font-weight="400" align="middle" lineHeight="125%" font-style="" opacity="0.15" y="92.875" transform="rotate(0)"></text></g></g><g id="SvgjsG1097" transform="translate(151.75,314.5)"><path id="SvgjsPath1098" d="M0 4Q0 0 4 0L454.5 0Q458.5 0 458.5 4L458.5 304Q458.5 308 454.5 308L4 308Q0 308 0 304Z " stroke-dasharray="10,6" stroke="rgba(50,50,50,0.15)" stroke-width="2" fill-opacity="0.15" fill="#ffffff"></path><g id="SvgjsG1099"><text id="SvgjsText1100" font-family="微软雅黑" text-anchor="middle" font-size="13px" width="439px" fill="#323232" font-weight="400" align="middle" lineHeight="125%" font-style="" opacity="0.15" y="143.375" transform="rotate(0)"></text></g></g><g id="SvgjsG1101" transform="translate(151.75,622.5)"><path id="SvgjsPath1102" d="M0 4Q0 0 4 0L454.5 0Q458.5 0 458.5 4L458.5 294Q458.5 298 454.5 298L4 298Q0 298 0 294Z " stroke-dasharray="10,6" stroke="rgba(50,50,50,0.15)" stroke-width="2" fill-opacity="0.15" fill="#ffffff"></path><g id="SvgjsG1103"><text id="SvgjsText1104" font-family="微软雅黑" text-anchor="middle" font-size="13px" width="439px" fill="#323232" font-weight="400" align="middle" lineHeight="125%" font-style="" opacity="0.15" y="138.375" transform="rotate(0)"></text></g></g><g id="SvgjsG1105" transform="translate(25,196)"><path id="SvgjsPath1106" d="M0 0L120 0L120 40L0 40Z " stroke="none" fill="none"></path><g id="SvgjsG1107"><text id="SvgjsText1108" font-family="微软雅黑" text-anchor="middle" font-size="20px" width="120px" fill="#323232" font-weight="400" align="middle" lineHeight="125%" font-style="" opacity="1" y="2" transform="rotate(0)"><tspan id="SvgjsTspan1109" dy="25" x="60"><tspan id="SvgjsTspan1110" style="text-decoration:;">Conv1d</tspan></tspan></text></g></g><g id="SvgjsG1111" transform="translate(25,444)"><path id="SvgjsPath1112" d="M0 0L120 0L120 40L0 40Z " stroke="none" fill="none"></path><g id="SvgjsG1113"><text id="SvgjsText1114" font-family="微软雅黑" text-anchor="middle" font-size="20px" width="120px" fill="#323232" font-weight="400" align="middle" lineHeight="125%" font-style="" opacity="1" y="2" transform="rotate(0)"><tspan id="SvgjsTspan1115" dy="25" x="60"><tspan id="SvgjsTspan1116" style="text-decoration:;">LSTM</tspan></tspan></text></g></g><g id="SvgjsG1117" transform="translate(25,751.5)"><path id="SvgjsPath1118" d="M0 0L120 0L120 40L0 40Z " stroke="none" fill="none"></path><g id="SvgjsG1119"><text id="SvgjsText1120" font-family="微软雅黑" text-anchor="middle" font-size="20px" width="120px" fill="#323232" font-weight="400" align="middle" lineHeight="125%" font-style="" opacity="1" y="2" transform="rotate(0)"><tspan id="SvgjsTspan1121" dy="25" x="60"><tspan id="SvgjsTspan1122" style="text-decoration:;">MLP</tspan></tspan></text></g></g></svg>