<svg id="SvgjsSvg1000" xmlns="http://www.w3.org/2000/svg" version="1.1" xmlns:xlink="http://www.w3.org/1999/xlink" xmlns:svgjs="http://svgjs.com/svgjs" width="697" height="485.25"><defs id="SvgjsDefs1001"></defs><g id="SvgjsG1007" transform="translate(25,29.25)"><path id="SvgjsPath1008" d="M0 4Q0 0 4 0L401 0Q405 0 405 4L405 36Q405 40 401 40L4 40Q0 40 0 36Z " stroke="rgba(50,50,50,1)" stroke-width="2" fill-opacity="1" fill="#e0e0e0"></path><g id="SvgjsG1009"><text id="SvgjsText1010" font-family="微软雅黑" text-anchor="middle" font-size="13px" width="385px" fill="#323232" font-weight="400" align="middle" lineHeight="125%" font-style="" opacity="1" y="9.375" transform="rotate(0)"><tspan id="SvgjsTspan1011" dy="16" x="202.5"><tspan id="SvgjsTspan1012" style="text-decoration:;">训练集</tspan></tspan></text></g></g><g id="SvgjsG1013" transform="translate(25,118.75)"><path id="SvgjsPath1014" d="M0 0L81 0L81 32L0 32Z " stroke="rgba(50,50,50,1)" stroke-width="2" fill-opacity="1" fill="#e0e0e0"></path><g id="SvgjsG1015"><text id="SvgjsText1016" font-family="微软雅黑" text-anchor="middle" font-size="13px" width="61px" fill="#323232" font-weight="400" align="middle" lineHeight="125%" font-style="" opacity="1" y="5.375" transform="rotate(0)"><tspan id="SvgjsTspan1017" dy="16" x="40.5"><tspan id="SvgjsTspan1018" style="text-decoration:;">第一折</tspan></tspan></text></g></g><g id="SvgjsG1019" transform="translate(106,118.75)"><path id="SvgjsPath1020" d="M0 0L81 0L81 32L0 32Z " stroke="rgba(50,50,50,1)" stroke-width="2" fill-opacity="1" fill="#e0e0e0"></path><g id="SvgjsG1021"><text id="SvgjsText1022" font-family="微软雅黑" text-anchor="middle" font-size="13px" width="61px" fill="#323232" font-weight="400" align="middle" lineHeight="125%" font-style="" opacity="1" y="5.375" transform="rotate(0)"><tspan id="SvgjsTspan1023" dy="16" x="40.5"><tspan id="SvgjsTspan1024" style="text-decoration:;">第二折</tspan></tspan></text></g></g><g id="SvgjsG1025" transform="translate(187,118.75)"><path id="SvgjsPath1026" d="M0 0L81 0L81 32L0 32Z " stroke="rgba(50,50,50,1)" stroke-width="2" fill-opacity="1" fill="#e0e0e0"></path><g id="SvgjsG1027"><text id="SvgjsText1028" font-family="微软雅黑" text-anchor="middle" font-size="13px" width="61px" fill="#323232" font-weight="400" align="middle" lineHeight="125%" font-style="" opacity="1" y="5.375" transform="rotate(0)"><tspan id="SvgjsTspan1029" dy="16" x="40.5"><tspan id="SvgjsTspan1030" style="text-decoration:;">···</tspan></tspan></text></g></g><g id="SvgjsG1031" transform="translate(268,118.75)"><path id="SvgjsPath1032" d="M0 0L81 0L81 32L0 32Z " stroke="rgba(50,50,50,1)" stroke-width="2" fill-opacity="1" fill="#e0e0e0"></path><g id="SvgjsG1033"><text id="SvgjsText1034" font-family="微软雅黑" text-anchor="middle" font-size="13px" width="61px" fill="#323232" font-weight="400" align="middle" lineHeight="125%" font-style="" opacity="1" y="5.375" transform="rotate(0)"><tspan id="SvgjsTspan1035" dy="16" x="40.5"><tspan id="SvgjsTspan1036" style="text-decoration:;">第K-1折</tspan></tspan></text></g></g><g id="SvgjsG1037" transform="translate(349,118.75)"><path id="SvgjsPath1038" d="M0 0L81 0L81 32L0 32Z " stroke="rgba(50,50,50,1)" stroke-width="2" fill-opacity="1" fill="#e0e0e0"></path><g id="SvgjsG1039"><text id="SvgjsText1040" font-family="微软雅黑" text-anchor="middle" font-size="13px" width="61px" fill="#323232" font-weight="400" align="middle" lineHeight="125%" font-style="" opacity="1" y="5.375" transform="rotate(0)"><tspan id="SvgjsTspan1041" dy="16" x="40.5"><tspan id="SvgjsTspan1042" style="text-decoration:;">第K折</tspan></tspan></text></g></g><g id="SvgjsG1043" transform="translate(25,192.25)"><path id="SvgjsPath1044" d="M0 0L81 0L81 32L0 32Z " stroke="rgba(50,50,50,1)" stroke-width="2" fill-opacity="1" fill="#e0e0e0"></path><g id="SvgjsG1045"><text id="SvgjsText1046" font-family="微软雅黑" text-anchor="middle" font-size="13px" width="61px" fill="#323232" font-weight="400" align="middle" lineHeight="125%" font-style="" opacity="1" y="5.375" transform="rotate(0)"><tspan id="SvgjsTspan1047" dy="16" x="40.5"><tspan id="SvgjsTspan1048" style="text-decoration:;">第一折</tspan></tspan></text></g></g><g id="SvgjsG1049" transform="translate(106,192.25)"><path id="SvgjsPath1050" d="M0 0L81 0L81 32L0 32Z " stroke="rgba(50,50,50,1)" stroke-width="2" fill-opacity="1" fill="#e0e0e0"></path><g id="SvgjsG1051"><text id="SvgjsText1052" font-family="微软雅黑" text-anchor="middle" font-size="13px" width="61px" fill="#323232" font-weight="400" align="middle" lineHeight="125%" font-style="" opacity="1" y="5.375" transform="rotate(0)"><tspan id="SvgjsTspan1053" dy="16" x="40.5"><tspan id="SvgjsTspan1054" style="text-decoration:;">第二折</tspan></tspan></text></g></g><g id="SvgjsG1055" transform="translate(187,192.25)"><path id="SvgjsPath1056" d="M0 0L81 0L81 32L0 32Z " stroke="rgba(50,50,50,1)" stroke-width="2" fill-opacity="1" fill="#e0e0e0"></path><g id="SvgjsG1057"><text id="SvgjsText1058" font-family="微软雅黑" text-anchor="middle" font-size="13px" width="61px" fill="#323232" font-weight="400" align="middle" lineHeight="125%" font-style="" opacity="1" y="5.375" transform="rotate(0)"><tspan id="SvgjsTspan1059" dy="16" x="40.5"><tspan id="SvgjsTspan1060" style="text-decoration:;">···</tspan></tspan></text></g></g><g id="SvgjsG1061" transform="translate(268,192.25)"><path id="SvgjsPath1062" d="M0 0L81 0L81 32L0 32Z " stroke="rgba(50,50,50,1)" stroke-width="2" fill-opacity="1" fill="#e0e0e0"></path><g id="SvgjsG1063"><text id="SvgjsText1064" font-family="微软雅黑" text-anchor="middle" font-size="13px" width="61px" fill="#323232" font-weight="400" align="middle" lineHeight="125%" font-style="" opacity="1" y="5.375" transform="rotate(0)"><tspan id="SvgjsTspan1065" dy="16" x="40.5"><tspan id="SvgjsTspan1066" style="text-decoration:;">第K-1折</tspan></tspan></text></g></g><g id="SvgjsG1067" transform="translate(349,192.25)"><path id="SvgjsPath1068" d="M0 0L81 0L81 32L0 32Z " stroke="rgba(50,50,50,1)" stroke-width="2" fill-opacity="1" fill="#bbdefb"></path><g id="SvgjsG1069"><text id="SvgjsText1070" font-family="微软雅黑" text-anchor="middle" font-size="13px" width="61px" fill="#323232" font-weight="400" align="middle" lineHeight="125%" font-style="" opacity="1" y="5.375" transform="rotate(0)"><tspan id="SvgjsTspan1071" dy="16" x="40.5"><tspan id="SvgjsTspan1072" style="text-decoration:;">第K折</tspan></tspan></text></g></g><g id="SvgjsG1073" transform="translate(25,251.25)"><path id="SvgjsPath1074" d="M0 0L81 0L81 32L0 32Z " stroke="rgba(50,50,50,1)" stroke-width="2" fill-opacity="1" fill="#e0e0e0"></path><g id="SvgjsG1075"><text id="SvgjsText1076" font-family="微软雅黑" text-anchor="middle" font-size="13px" width="61px" fill="#323232" font-weight="400" align="middle" lineHeight="125%" font-style="" opacity="1" y="5.375" transform="rotate(0)"><tspan id="SvgjsTspan1077" dy="16" x="40.5"><tspan id="SvgjsTspan1078" style="text-decoration:;">第一折</tspan></tspan></text></g></g><g id="SvgjsG1079" transform="translate(106,251.25)"><path id="SvgjsPath1080" d="M0 0L81 0L81 32L0 32Z " stroke="rgba(50,50,50,1)" stroke-width="2" fill-opacity="1" fill="#e0e0e0"></path><g id="SvgjsG1081"><text id="SvgjsText1082" font-family="微软雅黑" text-anchor="middle" font-size="13px" width="61px" fill="#323232" font-weight="400" align="middle" lineHeight="125%" font-style="" opacity="1" y="5.375" transform="rotate(0)"><tspan id="SvgjsTspan1083" dy="16" x="40.5"><tspan id="SvgjsTspan1084" style="text-decoration:;">第二折</tspan></tspan></text></g></g><g id="SvgjsG1085" transform="translate(187,251.25)"><path id="SvgjsPath1086" d="M0 0L81 0L81 32L0 32Z " stroke="rgba(50,50,50,1)" stroke-width="2" fill-opacity="1" fill="#e0e0e0"></path><g id="SvgjsG1087"><text id="SvgjsText1088" font-family="微软雅黑" text-anchor="middle" font-size="13px" width="61px" fill="#323232" font-weight="400" align="middle" lineHeight="125%" font-style="" opacity="1" y="5.375" transform="rotate(0)"><tspan id="SvgjsTspan1089" dy="16" x="40.5"><tspan id="SvgjsTspan1090" style="text-decoration:;">···</tspan></tspan></text></g></g><g id="SvgjsG1091" transform="translate(268,251.25)"><path id="SvgjsPath1092" d="M0 0L81 0L81 32L0 32Z " stroke="rgba(50,50,50,1)" stroke-width="2" fill-opacity="1" fill="#bbdefb"></path><g id="SvgjsG1093"><text id="SvgjsText1094" font-family="微软雅黑" text-anchor="middle" font-size="13px" width="61px" fill="#323232" font-weight="400" align="middle" lineHeight="125%" font-style="" opacity="1" y="5.375" transform="rotate(0)"><tspan id="SvgjsTspan1095" dy="16" x="40.5"><tspan id="SvgjsTspan1096" style="text-decoration:;">第K-1折</tspan></tspan></text></g></g><g id="SvgjsG1097" transform="translate(349,251.25)"><path id="SvgjsPath1098" d="M0 0L81 0L81 32L0 32Z " stroke="rgba(50,50,50,1)" stroke-width="2" fill-opacity="1" fill="#e0e0e0"></path><g id="SvgjsG1099"><text id="SvgjsText1100" font-family="微软雅黑" text-anchor="middle" font-size="13px" width="61px" fill="#323232" font-weight="400" align="middle" lineHeight="125%" font-style="" opacity="1" y="5.375" transform="rotate(0)"><tspan id="SvgjsTspan1101" dy="16" x="40.5"><tspan id="SvgjsTspan1102" style="text-decoration:;">第K折</tspan></tspan></text></g></g><g id="SvgjsG1103" transform="translate(25,310.25)"><path id="SvgjsPath1104" d="M0 0L81 0L81 32L0 32Z " stroke="rgba(50,50,50,1)" stroke-width="2" fill-opacity="1" fill="#e0e0e0"></path><g id="SvgjsG1105"><text id="SvgjsText1106" font-family="微软雅黑" text-anchor="middle" font-size="13px" width="61px" fill="#323232" font-weight="400" align="middle" lineHeight="125%" font-style="" opacity="1" y="5.375" transform="rotate(0)"><tspan id="SvgjsTspan1107" dy="16" x="40.5"><tspan id="SvgjsTspan1108" style="text-decoration:;">第一折</tspan></tspan></text></g></g><g id="SvgjsG1109" transform="translate(106,310.25)"><path id="SvgjsPath1110" d="M0 0L81 0L81 32L0 32Z " stroke="rgba(50,50,50,1)" stroke-width="2" fill-opacity="1" fill="#e0e0e0"></path><g id="SvgjsG1111"><text id="SvgjsText1112" font-family="微软雅黑" text-anchor="middle" font-size="13px" width="61px" fill="#323232" font-weight="400" align="middle" lineHeight="125%" font-style="" opacity="1" y="5.375" transform="rotate(0)"><tspan id="SvgjsTspan1113" dy="16" x="40.5"><tspan id="SvgjsTspan1114" style="text-decoration:;">第二折</tspan></tspan></text></g></g><g id="SvgjsG1115" transform="translate(187,310.25)"><path id="SvgjsPath1116" d="M0 0L81 0L81 32L0 32Z " stroke="rgba(50,50,50,1)" stroke-width="2" fill-opacity="1" fill="#bbdefb"></path><g id="SvgjsG1117"><text id="SvgjsText1118" font-family="微软雅黑" text-anchor="middle" font-size="13px" width="61px" fill="#323232" font-weight="400" align="middle" lineHeight="125%" font-style="" opacity="1" y="5.375" transform="rotate(0)"><tspan id="SvgjsTspan1119" dy="16" x="40.5"><tspan id="SvgjsTspan1120" style="text-decoration:;">···</tspan></tspan></text></g></g><g id="SvgjsG1121" transform="translate(268,310.25)"><path id="SvgjsPath1122" d="M0 0L81 0L81 32L0 32Z " stroke="rgba(50,50,50,1)" stroke-width="2" fill-opacity="1" fill="#e0e0e0"></path><g id="SvgjsG1123"><text id="SvgjsText1124" font-family="微软雅黑" text-anchor="middle" font-size="13px" width="61px" fill="#323232" font-weight="400" align="middle" lineHeight="125%" font-style="" opacity="1" y="5.375" transform="rotate(0)"><tspan id="SvgjsTspan1125" dy="16" x="40.5"><tspan id="SvgjsTspan1126" style="text-decoration:;">第K-1折</tspan></tspan></text></g></g><g id="SvgjsG1127" transform="translate(349,310.25)"><path id="SvgjsPath1128" d="M0 0L81 0L81 32L0 32Z " stroke="rgba(50,50,50,1)" stroke-width="2" fill-opacity="1" fill="#e0e0e0"></path><g id="SvgjsG1129"><text id="SvgjsText1130" font-family="微软雅黑" text-anchor="middle" font-size="13px" width="61px" fill="#323232" font-weight="400" align="middle" lineHeight="125%" font-style="" opacity="1" y="5.375" transform="rotate(0)"><tspan id="SvgjsTspan1131" dy="16" x="40.5"><tspan id="SvgjsTspan1132" style="text-decoration:;">第K折</tspan></tspan></text></g></g><g id="SvgjsG1133" transform="translate(25,369.25)"><path id="SvgjsPath1134" d="M0 0L81 0L81 32L0 32Z " stroke="rgba(50,50,50,1)" stroke-width="2" fill-opacity="1" fill="#e0e0e0"></path><g id="SvgjsG1135"><text id="SvgjsText1136" font-family="微软雅黑" text-anchor="middle" font-size="13px" width="61px" fill="#323232" font-weight="400" align="middle" lineHeight="125%" font-style="" opacity="1" y="5.375" transform="rotate(0)"><tspan id="SvgjsTspan1137" dy="16" x="40.5"><tspan id="SvgjsTspan1138" style="text-decoration:;">第一折</tspan></tspan></text></g></g><g id="SvgjsG1139" transform="translate(106,369.25)"><path id="SvgjsPath1140" d="M0 0L81 0L81 32L0 32Z " stroke="rgba(50,50,50,1)" stroke-width="2" fill-opacity="1" fill="#bbdefb"></path><g id="SvgjsG1141"><text id="SvgjsText1142" font-family="微软雅黑" text-anchor="middle" font-size="13px" width="61px" fill="#323232" font-weight="400" align="middle" lineHeight="125%" font-style="" opacity="1" y="5.375" transform="rotate(0)"><tspan id="SvgjsTspan1143" dy="16" x="40.5"><tspan id="SvgjsTspan1144" style="text-decoration:;">第二折</tspan></tspan></text></g></g><g id="SvgjsG1145" transform="translate(187,369.25)"><path id="SvgjsPath1146" d="M0 0L81 0L81 32L0 32Z " stroke="rgba(50,50,50,1)" stroke-width="2" fill-opacity="1" fill="#e0e0e0"></path><g id="SvgjsG1147"><text id="SvgjsText1148" font-family="微软雅黑" text-anchor="middle" font-size="13px" width="61px" fill="#323232" font-weight="400" align="middle" lineHeight="125%" font-style="" opacity="1" y="5.375" transform="rotate(0)"><tspan id="SvgjsTspan1149" dy="16" x="40.5"><tspan id="SvgjsTspan1150" style="text-decoration:;">···</tspan></tspan></text></g></g><g id="SvgjsG1151" transform="translate(268,369.25)"><path id="SvgjsPath1152" d="M0 0L81 0L81 32L0 32Z " stroke="rgba(50,50,50,1)" stroke-width="2" fill-opacity="1" fill="#e0e0e0"></path><g id="SvgjsG1153"><text id="SvgjsText1154" font-family="微软雅黑" text-anchor="middle" font-size="13px" width="61px" fill="#323232" font-weight="400" align="middle" lineHeight="125%" font-style="" opacity="1" y="5.375" transform="rotate(0)"><tspan id="SvgjsTspan1155" dy="16" x="40.5"><tspan id="SvgjsTspan1156" style="text-decoration:;">第K-1折</tspan></tspan></text></g></g><g id="SvgjsG1157" transform="translate(349,369.25)"><path id="SvgjsPath1158" d="M0 0L81 0L81 32L0 32Z " stroke="rgba(50,50,50,1)" stroke-width="2" fill-opacity="1" fill="#e0e0e0"></path><g id="SvgjsG1159"><text id="SvgjsText1160" font-family="微软雅黑" text-anchor="middle" font-size="13px" width="61px" fill="#323232" font-weight="400" align="middle" lineHeight="125%" font-style="" opacity="1" y="5.375" transform="rotate(0)"><tspan id="SvgjsTspan1161" dy="16" x="40.5"><tspan id="SvgjsTspan1162" style="text-decoration:;">第K折</tspan></tspan></text></g></g><g id="SvgjsG1163" transform="translate(25,428.25)"><path id="SvgjsPath1164" d="M0 0L81 0L81 32L0 32Z " stroke="rgba(50,50,50,1)" stroke-width="2" fill-opacity="1" fill="#bbdefb"></path><g id="SvgjsG1165"><text id="SvgjsText1166" font-family="微软雅黑" text-anchor="middle" font-size="13px" width="61px" fill="#323232" font-weight="400" align="middle" lineHeight="125%" font-style="" opacity="1" y="5.375" transform="rotate(0)"><tspan id="SvgjsTspan1167" dy="16" x="40.5"><tspan id="SvgjsTspan1168" style="text-decoration:;">第一折</tspan></tspan></text></g></g><g id="SvgjsG1169" transform="translate(106,428.25)"><path id="SvgjsPath1170" d="M0 0L81 0L81 32L0 32Z " stroke="rgba(50,50,50,1)" stroke-width="2" fill-opacity="1" fill="#e0e0e0"></path><g id="SvgjsG1171"><text id="SvgjsText1172" font-family="微软雅黑" text-anchor="middle" font-size="13px" width="61px" fill="#323232" font-weight="400" align="middle" lineHeight="125%" font-style="" opacity="1" y="5.375" transform="rotate(0)"><tspan id="SvgjsTspan1173" dy="16" x="40.5"><tspan id="SvgjsTspan1174" style="text-decoration:;">第二折</tspan></tspan></text></g></g><g id="SvgjsG1175" transform="translate(187,428.25)"><path id="SvgjsPath1176" d="M0 0L81 0L81 32L0 32Z " stroke="rgba(50,50,50,1)" stroke-width="2" fill-opacity="1" fill="#e0e0e0"></path><g id="SvgjsG1177"><text id="SvgjsText1178" font-family="微软雅黑" text-anchor="middle" font-size="13px" width="61px" fill="#323232" font-weight="400" align="middle" lineHeight="125%" font-style="" opacity="1" y="5.375" transform="rotate(0)"><tspan id="SvgjsTspan1179" dy="16" x="40.5"><tspan id="SvgjsTspan1180" style="text-decoration:;">···</tspan></tspan></text></g></g><g id="SvgjsG1181" transform="translate(268,428.25)"><path id="SvgjsPath1182" d="M0 0L81 0L81 32L0 32Z " stroke="rgba(50,50,50,1)" stroke-width="2" fill-opacity="1" fill="#e0e0e0"></path><g id="SvgjsG1183"><text id="SvgjsText1184" font-family="微软雅黑" text-anchor="middle" font-size="13px" width="61px" fill="#323232" font-weight="400" align="middle" lineHeight="125%" font-style="" opacity="1" y="5.375" transform="rotate(0)"><tspan id="SvgjsTspan1185" dy="16" x="40.5"><tspan id="SvgjsTspan1186" style="text-decoration:;">第K-1折</tspan></tspan></text></g></g><g id="SvgjsG1187" transform="translate(349,428.25)"><path id="SvgjsPath1188" d="M0 0L81 0L81 32L0 32Z " stroke="rgba(50,50,50,1)" stroke-width="2" fill-opacity="1" fill="#e0e0e0"></path><g id="SvgjsG1189"><text id="SvgjsText1190" font-family="微软雅黑" text-anchor="middle" font-size="13px" width="61px" fill="#323232" font-weight="400" align="middle" lineHeight="125%" font-style="" opacity="1" y="5.375" transform="rotate(0)"><tspan id="SvgjsTspan1191" dy="16" x="40.5"><tspan id="SvgjsTspan1192" style="text-decoration:;">第K折</tspan></tspan></text></g></g><g id="SvgjsG1193" transform="matrix(-1.8369701987210297e-16,-1,1,-1.8369701987210297e-16,65.74999999999991,117.25000000000006)"><path id="SvgjsPath1194" d="M0 326.2500000000001Q9 326.2500000000001 9 317.2500000000001L9 172.12500000000006Q9 163.12500000000006 22 163.12500000000006Q9 163.12500000000006 9 154.12500000000006L9 9Q9 0 0 0 " stroke="rgba(50,50,50,1)" stroke-width="2" fill="none"></path><path id="SvgjsPath1195" d="M0 0L92.24999999999994 0L92.24999999999994 326.2500000000001L0 326.2500000000001Z " stroke="none" fill="none"></path><g id="SvgjsG1196"><text id="SvgjsText1197" font-family="微软雅黑" text-anchor="start" font-size="13px" width="66px" fill="#323232" font-weight="400" align="middle" lineHeight="125%" font-style="" opacity="1" y="152.50000000000006" transform="rotate(0)"></text></g></g><g id="SvgjsG1198" transform="translate(212,70.25)"><path id="SvgjsPath1199" d="M0 0L120 0L120 40L0 40Z " stroke="none" fill="none"></path><g id="SvgjsG1200"><text id="SvgjsText1201" font-family="微软雅黑" text-anchor="middle" font-size="13px" width="120px" fill="#323232" font-weight="400" align="middle" lineHeight="125%" font-style="" opacity="1" y="9.375" transform="rotate(0)"><tspan id="SvgjsTspan1202" dy="16" x="60"><tspan id="SvgjsTspan1203" style="text-decoration:;">K折交叉验证</tspan></tspan></text></g></g><g id="SvgjsG1204" transform="translate(460,192.25)"><path id="SvgjsPath1205" d="M0 0L81 0L81 32L0 32Z " stroke="rgba(50,50,50,1)" stroke-width="2" fill-opacity="1" fill="#bbdefb"></path><g id="SvgjsG1206"><text id="SvgjsText1207" font-family="微软雅黑" text-anchor="middle" font-size="13px" width="61px" fill="#323232" font-weight="400" align="middle" lineHeight="125%" font-style="" opacity="1" y="5.375" transform="rotate(0)"><tspan id="SvgjsTspan1208" dy="16" x="40.5"><tspan id="SvgjsTspan1209" style="text-decoration:;">第K折</tspan></tspan></text></g></g><g id="SvgjsG1210" transform="translate(460,251.25)"><path id="SvgjsPath1211" d="M0 0L81 0L81 32L0 32Z " stroke="rgba(50,50,50,1)" stroke-width="2" fill-opacity="1" fill="#bbdefb"></path><g id="SvgjsG1212"><text id="SvgjsText1213" font-family="微软雅黑" text-anchor="middle" font-size="13px" width="61px" fill="#323232" font-weight="400" align="middle" lineHeight="125%" font-style="" opacity="1" y="5.375" transform="rotate(0)"><tspan id="SvgjsTspan1214" dy="16" x="40.5"><tspan id="SvgjsTspan1215" style="text-decoration:;">第K-1折</tspan></tspan></text></g></g><g id="SvgjsG1216" transform="translate(460,310.25)"><path id="SvgjsPath1217" d="M0 0L81 0L81 32L0 32Z " stroke="rgba(50,50,50,1)" stroke-width="2" fill-opacity="1" fill="#bbdefb"></path><g id="SvgjsG1218"><text id="SvgjsText1219" font-family="微软雅黑" text-anchor="middle" font-size="13px" width="61px" fill="#323232" font-weight="400" align="middle" lineHeight="125%" font-style="" opacity="1" y="5.375" transform="rotate(0)"><tspan id="SvgjsTspan1220" dy="16" x="40.5"><tspan id="SvgjsTspan1221" style="text-decoration:;">···</tspan></tspan></text></g></g><g id="SvgjsG1222" transform="translate(460,369.25)"><path id="SvgjsPath1223" d="M0 0L81 0L81 32L0 32Z " stroke="rgba(50,50,50,1)" stroke-width="2" fill-opacity="1" fill="#bbdefb"></path><g id="SvgjsG1224"><text id="SvgjsText1225" font-family="微软雅黑" text-anchor="middle" font-size="13px" width="61px" fill="#323232" font-weight="400" align="middle" lineHeight="125%" font-style="" opacity="1" y="5.375" transform="rotate(0)"><tspan id="SvgjsTspan1226" dy="16" x="40.5"><tspan id="SvgjsTspan1227" style="text-decoration:;">第二折</tspan></tspan></text></g></g><g id="SvgjsG1228" transform="translate(460,428.25)"><path id="SvgjsPath1229" d="M0 0L81 0L81 32L0 32Z " stroke="rgba(50,50,50,1)" stroke-width="2" fill-opacity="1" fill="#bbdefb"></path><g id="SvgjsG1230"><text id="SvgjsText1231" font-family="微软雅黑" text-anchor="middle" font-size="13px" width="61px" fill="#323232" font-weight="400" align="middle" lineHeight="125%" font-style="" opacity="1" y="5.375" transform="rotate(0)"><tspan id="SvgjsTspan1232" dy="16" x="40.5"><tspan id="SvgjsTspan1233" style="text-decoration:;">第一折</tspan></tspan></text></g></g><g id="SvgjsG1234" transform="translate(541,209.25)"><path id="SvgjsPath1235" d="M0 234Q9 234 9 225L9 126Q9 117 22 117Q9 117 9 108L9 9Q9 0 0 0 " stroke="rgba(50,50,50,1)" stroke-width="2" fill="none"></path><path id="SvgjsPath1236" d="M0 0L100 0L100 234L0 234Z " stroke="none" fill="none"></path><g id="SvgjsG1237"><text id="SvgjsText1238" font-family="微软雅黑" text-anchor="start" font-size="13px" width="73px" fill="#323232" font-weight="400" align="middle" lineHeight="125%" font-style="" opacity="1" y="106.375" transform="rotate(0)"></text></g></g><g id="SvgjsG1239" transform="translate(552,306.25)"><path id="SvgjsPath1240" d="M0 0L120 0L120 40L0 40Z " stroke="none" fill="none"></path><g id="SvgjsG1241"><text id="SvgjsText1242" font-family="微软雅黑" text-anchor="middle" font-size="13px" width="120px" fill="#323232" font-weight="400" align="middle" lineHeight="125%" font-style="" opacity="1" y="1.375" transform="rotate(0)"><tspan id="SvgjsTspan1243" dy="16" x="60"><tspan id="SvgjsTspan1244" style="text-decoration:;">平均F1 score</tspan></tspan><tspan id="SvgjsTspan1245" dy="16" x="60"><tspan id="SvgjsTspan1246" style="text-decoration:;">线下验证分数</tspan></tspan></text></g></g></svg>