<svg id="SvgjsSvg1000" xmlns="http://www.w3.org/2000/svg" version="1.1" xmlns:xlink="http://www.w3.org/1999/xlink" xmlns:svgjs="http://svgjs.com/svgjs" width="1065.421875" height="1280.421875"><defs id="SvgjsDefs1001"><marker id="SvgjsMarker1021" markerWidth="14" markerHeight="10" refX="10" refY="5" viewBox="0 0 14 10" orient="auto" markerUnits="userSpaceOnUse" stroke-dasharray="0,0"><path id="SvgjsPath1022" d="M0 0L14 5L0 10L0 0 " fill="#323232" stroke="#323232" stroke-width="1"></path></marker><marker id="SvgjsMarker1043" markerWidth="14" markerHeight="10" refX="10" refY="5" viewBox="0 0 14 10" orient="auto" markerUnits="userSpaceOnUse" stroke-dasharray="0,0"><path id="SvgjsPath1044" d="M0 0L14 5L0 10L0 0 " fill="#323232" stroke="#323232" stroke-width="1"></path></marker><marker id="SvgjsMarker1047" markerWidth="14" markerHeight="10" refX="10" refY="5" viewBox="0 0 14 10" orient="auto" markerUnits="userSpaceOnUse" stroke-dasharray="0,0"><path id="SvgjsPath1048" d="M0 0L14 5L0 10L0 0 " fill="#323232" stroke="#323232" stroke-width="1"></path></marker><marker id="SvgjsMarker1057" markerWidth="14" markerHeight="10" refX="10" refY="5" viewBox="0 0 14 10" orient="auto" markerUnits="userSpaceOnUse" stroke-dasharray="0,0"><path id="SvgjsPath1058" d="M0 0L14 5L0 10L0 0 " fill="#323232" stroke="#323232" stroke-width="1"></path></marker><marker id="SvgjsMarker1079" markerWidth="14" markerHeight="10" refX="10" refY="5" viewBox="0 0 14 10" orient="auto" markerUnits="userSpaceOnUse" stroke-dasharray="0,0"><path id="SvgjsPath1080" d="M0 0L14 5L0 10L0 0 " fill="#323232" stroke="#323232" stroke-width="1"></path></marker><marker id="SvgjsMarker1083" markerWidth="14" markerHeight="10" refX="10" refY="5" viewBox="0 0 14 10" orient="auto" markerUnits="userSpaceOnUse" stroke-dasharray="0,0"><path id="SvgjsPath1084" d="M0 0L14 5L0 10L0 0 " fill="#323232" stroke="#323232" stroke-width="1"></path></marker><marker id="SvgjsMarker1093" markerWidth="14" markerHeight="10" refX="10" refY="5" viewBox="0 0 14 10" orient="auto" markerUnits="userSpaceOnUse" stroke-dasharray="0,0"><path id="SvgjsPath1094" d="M0 0L14 5L0 10L0 0 " fill="#323232" stroke="#323232" stroke-width="1"></path></marker><marker id="SvgjsMarker1097" markerWidth="14" markerHeight="10" refX="10" refY="5" viewBox="0 0 14 10" orient="auto" markerUnits="userSpaceOnUse" stroke-dasharray="0,0"><path id="SvgjsPath1098" d="M0 0L14 5L0 10L0 0 " fill="#323232" stroke="#323232" stroke-width="1"></path></marker><marker id="SvgjsMarker1101" markerWidth="14" markerHeight="10" refX="10" refY="5" viewBox="0 0 14 10" orient="auto" markerUnits="userSpaceOnUse" stroke-dasharray="0,0"><path id="SvgjsPath1102" d="M0 0L14 5L0 10L0 0 " fill="#323232" stroke="#323232" stroke-width="1"></path></marker><marker id="SvgjsMarker1105" markerWidth="14" markerHeight="10" refX="10" refY="5" viewBox="0 0 14 10" orient="auto" markerUnits="userSpaceOnUse" stroke-dasharray="0,0"><path id="SvgjsPath1106" d="M0 0L14 5L0 10L0 0 " fill="#323232" stroke="#323232" stroke-width="1"></path></marker><marker id="SvgjsMarker1109" markerWidth="14" markerHeight="10" refX="10" refY="5" viewBox="0 0 14 10" orient="auto" markerUnits="userSpaceOnUse" stroke-dasharray="0,0"><path id="SvgjsPath1110" d="M0 0L14 5L0 10L0 0 " fill="#323232" stroke="#323232" stroke-width="1"></path></marker><marker id="SvgjsMarker1119" markerWidth="14" markerHeight="10" refX="10" refY="5" viewBox="0 0 14 10" orient="auto" markerUnits="userSpaceOnUse" stroke-dasharray="0,0"><path id="SvgjsPath1120" d="M0 0L14 5L0 10L0 0 " fill="#323232" stroke="#323232" stroke-width="1"></path></marker><marker id="SvgjsMarker1123" markerWidth="14" markerHeight="10" refX="10" refY="5" viewBox="0 0 14 10" orient="auto" markerUnits="userSpaceOnUse" stroke-dasharray="0,0"><path id="SvgjsPath1124" d="M0 0L14 5L0 10L0 0 " fill="#323232" stroke="#323232" stroke-width="1"></path></marker><marker id="SvgjsMarker1135" markerWidth="14" markerHeight="10" refX="10" refY="5" viewBox="0 0 14 10" orient="auto" markerUnits="userSpaceOnUse" stroke-dasharray="0,0"><path id="SvgjsPath1136" d="M0 0L14 5L0 10L0 0 " fill="#323232" stroke="#323232" stroke-width="1"></path></marker><marker id="SvgjsMarker1139" markerWidth="14" markerHeight="10" refX="10" refY="5" viewBox="0 0 14 10" orient="auto" markerUnits="userSpaceOnUse" stroke-dasharray="0,0"><path id="SvgjsPath1140" d="M0 0L14 5L0 10L0 0 " fill="#323232" stroke="#323232" stroke-width="1"></path></marker><marker id="SvgjsMarker1143" markerWidth="14" markerHeight="10" refX="10" refY="5" viewBox="0 0 14 10" orient="auto" markerUnits="userSpaceOnUse" stroke-dasharray="0,0"><path id="SvgjsPath1144" d="M0 0L14 5L0 10L0 0 " fill="#323232" stroke="#323232" stroke-width="1"></path></marker><marker id="SvgjsMarker1147" markerWidth="14" markerHeight="10" refX="10" refY="5" viewBox="0 0 14 10" orient="auto" markerUnits="userSpaceOnUse" stroke-dasharray="0,0"><path id="SvgjsPath1148" d="M0 0L14 5L0 10L0 0 " fill="#323232" stroke="#323232" stroke-width="1"></path></marker><marker id="SvgjsMarker1169" markerWidth="14" markerHeight="10" refX="10" refY="5" viewBox="0 0 14 10" orient="auto" markerUnits="userSpaceOnUse" stroke-dasharray="0,0"><path id="SvgjsPath1170" d="M0 0L14 5L0 10L0 0 " fill="#323232" stroke="#323232" stroke-width="1"></path></marker><marker id="SvgjsMarker1173" markerWidth="14" markerHeight="10" refX="10" refY="5" viewBox="0 0 14 10" orient="auto" markerUnits="userSpaceOnUse" stroke-dasharray="0,0"><path id="SvgjsPath1174" d="M0 0L14 5L0 10L0 0 " fill="#323232" stroke="#323232" stroke-width="1"></path></marker><marker id="SvgjsMarker1177" markerWidth="14" markerHeight="10" refX="10" refY="5" viewBox="0 0 14 10" orient="auto" markerUnits="userSpaceOnUse" stroke-dasharray="0,0"><path id="SvgjsPath1178" d="M0 0L14 5L0 10L0 0 " fill="#323232" stroke="#323232" stroke-width="1"></path></marker></defs><g id="SvgjsG1007" transform="translate(353.5781249999998,24.99999999999998)"><path id="SvgjsPath1008" d="M0 4Q0 0 4 0L96 0Q100 0 100 4L100 66Q100 70 96 70L4 70Q0 70 0 66Z " stroke="rgba(50,50,50,1)" stroke-width="2" fill-opacity="1" fill="#ffffff"></path><g id="SvgjsG1009"><text id="SvgjsText1010" font-family="微软雅黑" text-anchor="middle" font-size="13px" width="80px" fill="#323232" font-weight="700" align="middle" lineHeight="125%" font-style="" opacity="1" y="24.375" transform="rotate(0)"><tspan id="SvgjsTspan1011" dy="16" x="50"><tspan id="SvgjsTspan1012" style="text-decoration:;">INPUT</tspan></tspan></text></g></g><g id="SvgjsG1013" transform="translate(331.0781249999998,155)"><path id="SvgjsPath1014" d="M0 4Q0 0 4 0L141 0Q145 0 145 4L145 57Q145 61 141 61L4 61Q0 61 0 57Z " stroke="rgba(50,50,50,1)" stroke-width="2" fill-opacity="1" fill="#bbdefb"></path><g id="SvgjsG1015"><text id="SvgjsText1016" font-family="微软雅黑" text-anchor="middle" font-size="13px" width="125px" fill="#323232" font-weight="700" align="middle" lineHeight="125%" font-style="" opacity="1" y="19.875" transform="rotate(0)"><tspan id="SvgjsTspan1017" dy="16" x="72.5"><tspan id="SvgjsTspan1018" style="text-decoration:;">Bi-LSTM(288)</tspan></tspan></text></g></g><g id="SvgjsG1019"><path id="SvgjsPath1020" d="M403.5781249999998 95.99999999999999L403.5781249999998 125L403.5781249999997 125L403.5781249999997 151.4 " stroke="#323232" stroke-width="2" fill="none" marker-end="url(#SvgjsMarker1021)"></path></g><g id="SvgjsG1023" transform="translate(331.0781249999997,276)"><path id="SvgjsPath1024" d="M0 4Q0 0 4 0L141 0Q145 0 145 4L145 57Q145 61 141 61L4 61Q0 61 0 57Z " stroke="rgba(50,50,50,1)" stroke-width="2" fill-opacity="1" fill="#bbdefb"></path><g id="SvgjsG1025"><text id="SvgjsText1026" font-family="微软雅黑" text-anchor="middle" font-size="13px" width="125px" fill="#323232" font-weight="700" align="middle" lineHeight="125%" font-style="" opacity="1" y="19.875" transform="rotate(0)"><tspan id="SvgjsTspan1027" dy="16" x="72.5"><tspan id="SvgjsTspan1028" style="text-decoration:;">Bi-LSTM(192)</tspan></tspan></text></g></g><g id="SvgjsG1029" transform="translate(331.07812499999966,456.5)"><path id="SvgjsPath1030" d="M0 4Q0 0 4 0L141 0Q145 0 145 4L145 57Q145 61 141 61L4 61Q0 61 0 57Z " stroke="rgba(50,50,50,1)" stroke-width="2" fill-opacity="1" fill="#bbdefb"></path><g id="SvgjsG1031"><text id="SvgjsText1032" font-family="微软雅黑" text-anchor="middle" font-size="13px" width="125px" fill="#323232" font-weight="700" align="middle" lineHeight="125%" font-style="" opacity="1" y="19.875" transform="rotate(0)"><tspan id="SvgjsTspan1033" dy="16" x="72.5"><tspan id="SvgjsTspan1034" style="text-decoration:;">Bi-LSTM(144)</tspan></tspan></text></g></g><g id="SvgjsG1035" transform="translate(331.0781249999996,637)"><path id="SvgjsPath1036" d="M0 4Q0 0 4 0L141 0Q145 0 145 4L145 57Q145 61 141 61L4 61Q0 61 0 57Z " stroke="rgba(50,50,50,1)" stroke-width="2" fill-opacity="1" fill="#bbdefb"></path><g id="SvgjsG1037"><text id="SvgjsText1038" font-family="微软雅黑" text-anchor="middle" font-size="13px" width="125px" fill="#323232" font-weight="700" align="middle" lineHeight="125%" font-style="" opacity="1" y="19.875" transform="rotate(0)"><tspan id="SvgjsTspan1039" dy="16" x="72.5"><tspan id="SvgjsTspan1040" style="text-decoration:;">Bi-LSTM(96)</tspan></tspan></text></g></g><g id="SvgjsG1041"><path id="SvgjsPath1042" d="M403.57812499999966 518.5L403.57812499999966 577.25L403.57812499999955 577.25L403.57812499999955 633.4 " stroke="#323232" stroke-width="2" fill="none" marker-end="url(#SvgjsMarker1043)"></path></g><g id="SvgjsG1045"><path id="SvgjsPath1046" d="M403.5781249999998 95.99999999999999L403.5781249999998 122.64285714285705L668.578125 122.64285714285705L668.578125 272.4 " stroke="#323232" stroke-width="2" fill="none" marker-end="url(#SvgjsMarker1047)"></path></g><g id="SvgjsG1049" transform="translate(596.078125,276)"><path id="SvgjsPath1050" d="M0 4Q0 0 4 0L141 0Q145 0 145 4L145 57Q145 61 141 61L4 61Q0 61 0 57Z " stroke="rgba(50,50,50,1)" stroke-width="2" fill-opacity="1" fill="#bbdefb"></path><g id="SvgjsG1051"><text id="SvgjsText1052" font-family="微软雅黑" text-anchor="middle" font-size="13px" width="125px" fill="#323232" font-weight="700" align="middle" lineHeight="125%" font-style="" opacity="1" y="19.875" transform="rotate(0)"><tspan id="SvgjsTspan1053" dy="16" x="72.5"><tspan id="SvgjsTspan1054" style="text-decoration:;">Bi-LSTM(192)</tspan></tspan></text></g></g><g id="SvgjsG1055"><path id="SvgjsPath1056" d="M403.5781249999998 338L403.5781249999998 396.75L403.57812499999966 396.75L403.57812499999966 452.9 " stroke="#323232" stroke-width="2" fill="none" marker-end="url(#SvgjsMarker1057)"></path></g><g id="SvgjsG1059" transform="translate(596.078125,456.5)"><path id="SvgjsPath1060" d="M0 4Q0 0 4 0L141 0Q145 0 145 4L145 57Q145 61 141 61L4 61Q0 61 0 57Z " stroke="rgba(50,50,50,1)" stroke-width="2" fill-opacity="1" fill="#bbdefb"></path><g id="SvgjsG1061"><text id="SvgjsText1062" font-family="微软雅黑" text-anchor="middle" font-size="13px" width="125px" fill="#323232" font-weight="700" align="middle" lineHeight="125%" font-style="" opacity="1" y="19.875" transform="rotate(0)"><tspan id="SvgjsTspan1063" dy="16" x="72.5"><tspan id="SvgjsTspan1064" style="text-decoration:;">Bi-LSTM(144)</tspan></tspan></text></g></g><g id="SvgjsG1065" transform="translate(596.078125,637)"><path id="SvgjsPath1066" d="M0 4Q0 0 4 0L141 0Q145 0 145 4L145 57Q145 61 141 61L4 61Q0 61 0 57Z " stroke="rgba(50,50,50,1)" stroke-width="2" fill-opacity="1" fill="#bbdefb"></path><g id="SvgjsG1067"><text id="SvgjsText1068" font-family="微软雅黑" text-anchor="middle" font-size="13px" width="125px" fill="#323232" font-weight="700" align="middle" lineHeight="125%" font-style="" opacity="1" y="19.875" transform="rotate(0)"><tspan id="SvgjsTspan1069" dy="16" x="72.5"><tspan id="SvgjsTspan1070" style="text-decoration:;">Bi-LSTM(96)</tspan></tspan></text></g></g><g id="SvgjsG1071" transform="translate(596.078125,366.25)"><path id="SvgjsPath1072" d="M0 4Q0 0 4 0L141 0Q145 0 145 4L145 57Q145 61 141 61L4 61Q0 61 0 57Z " stroke="rgba(50,50,50,1)" stroke-width="2" fill-opacity="1" fill="#e1bee7"></path><g id="SvgjsG1073"><text id="SvgjsText1074" font-family="微软雅黑" text-anchor="middle" font-size="13px" width="125px" fill="#323232" font-weight="700" align="middle" lineHeight="125%" font-style="" opacity="1" y="19.875" transform="rotate(0)"><tspan id="SvgjsTspan1075" dy="16" x="72.5"><tspan id="SvgjsTspan1076" style="text-decoration:;">cat([,])</tspan></tspan></text></g></g><g id="SvgjsG1077"><path id="SvgjsPath1078" d="M668.578125 338L668.578125 351.625L668.578125 351.625L668.578125 362.65 " stroke="#323232" stroke-width="2" fill="none" marker-end="url(#SvgjsMarker1079)"></path></g><g id="SvgjsG1081"><path id="SvgjsPath1082" d="M403.5781249999998 338L403.5781249999998 396.75L592.478125 396.75 " stroke="#323232" stroke-width="2" fill="none" marker-end="url(#SvgjsMarker1083)"></path></g><g id="SvgjsG1085" transform="translate(596.078125,546.75)"><path id="SvgjsPath1086" d="M0 4Q0 0 4 0L141 0Q145 0 145 4L145 57Q145 61 141 61L4 61Q0 61 0 57Z " stroke="rgba(50,50,50,1)" stroke-width="2" fill-opacity="1" fill="#e1bee7"></path><g id="SvgjsG1087"><text id="SvgjsText1088" font-family="微软雅黑" text-anchor="middle" font-size="13px" width="125px" fill="#323232" font-weight="700" align="middle" lineHeight="125%" font-style="" opacity="1" y="19.875" transform="rotate(0)"><tspan id="SvgjsTspan1089" dy="16" x="72.5"><tspan id="SvgjsTspan1090" style="text-decoration:;">cat([,])</tspan></tspan></text></g></g><g id="SvgjsG1091"><path id="SvgjsPath1092" d="M668.578125 428.25L668.578125 441.875L668.578125 441.875L668.578125 452.9 " stroke="#323232" stroke-width="2" fill="none" marker-end="url(#SvgjsMarker1093)"></path></g><g id="SvgjsG1095"><path id="SvgjsPath1096" d="M668.578125 518.5L668.578125 532.125L668.578125 532.125L668.578125 543.15 " stroke="#323232" stroke-width="2" fill="none" marker-end="url(#SvgjsMarker1097)"></path></g><g id="SvgjsG1099"><path id="SvgjsPath1100" d="M403.57812499999966 518.5L403.57812499999966 577.25L592.478125 577.25 " stroke="#323232" stroke-width="2" fill="none" marker-end="url(#SvgjsMarker1101)"></path></g><g id="SvgjsG1103"><path id="SvgjsPath1104" d="M668.578125 608.75L668.578125 622.375L668.578125 622.375L668.578125 633.4 " stroke="#323232" stroke-width="2" fill="none" marker-end="url(#SvgjsMarker1105)"></path></g><g id="SvgjsG1107"><path id="SvgjsPath1108" d="M403.5781249999997 217L403.5781249999997 246L403.5781249999998 246L403.5781249999998 272.4 " stroke="#323232" stroke-width="2" fill="none" marker-end="url(#SvgjsMarker1109)"></path></g><g id="SvgjsG1111" transform="translate(596.078125,758)"><path id="SvgjsPath1112" d="M0 4Q0 0 4 0L141 0Q145 0 145 4L145 57Q145 61 141 61L4 61Q0 61 0 57Z " stroke="rgba(50,50,50,1)" stroke-width="2" fill-opacity="1" fill="#e1bee7"></path><g id="SvgjsG1113"><text id="SvgjsText1114" font-family="微软雅黑" text-anchor="middle" font-size="13px" width="125px" fill="#323232" font-weight="700" align="middle" lineHeight="125%" font-style="" opacity="1" y="19.875" transform="rotate(0)"><tspan id="SvgjsTspan1115" dy="16" x="72.5"><tspan id="SvgjsTspan1116" style="text-decoration:;">cat([,])</tspan></tspan></text></g></g><g id="SvgjsG1117"><path id="SvgjsPath1118" d="M668.578125 699L668.578125 728L668.578125 728L668.578125 754.4 " stroke="#323232" stroke-width="2" fill="none" marker-end="url(#SvgjsMarker1119)"></path></g><g id="SvgjsG1121"><path id="SvgjsPath1122" d="M403.57812499999955 699L403.57812499999955 788.5L592.478125 788.5 " stroke="#323232" stroke-width="2" fill="none" marker-end="url(#SvgjsMarker1123)"></path></g><g id="SvgjsG1125" transform="translate(596.078125,863.625)"><path id="SvgjsPath1126" d="M0 4Q0 0 4 0L141 0Q145 0 145 4L145 57Q145 61 141 61L4 61Q0 61 0 57Z " stroke="rgba(50,50,50,1)" stroke-width="2" fill-opacity="1" fill="#e1bee7"></path><g id="SvgjsG1127"><text id="SvgjsText1128" font-family="微软雅黑" text-anchor="middle" font-size="13px" width="125px" fill="#323232" font-weight="700" align="middle" lineHeight="125%" font-style="" opacity="1" y="11.875" transform="rotate(0)"><tspan id="SvgjsTspan1129" dy="16" x="72.5"><tspan id="SvgjsTspan1130" style="text-decoration:;">cat([,])</tspan></tspan><tspan id="SvgjsTspan1131" dy="16" x="72.5"><tspan id="SvgjsTspan1132" style="text-decoration:;">Reshape</tspan></tspan></text></g></g><g id="SvgjsG1133"><path id="SvgjsPath1134" d="M668.578125 820L668.578125 841.3125L668.578125 841.3125L668.578125 860.025 " stroke="#323232" stroke-width="2" fill="none" marker-end="url(#SvgjsMarker1135)"></path></g><g id="SvgjsG1137"><path id="SvgjsPath1138" d="M330.0781249999998 185.5L253.93526785714295 185.5L253.93526785714295 894.125L592.478125 894.125 " stroke="#323232" stroke-width="2" fill="none" marker-end="url(#SvgjsMarker1139)"></path></g><g id="SvgjsG1141"><path id="SvgjsPath1142" d="M742.078125 396.75L943.078125 396.75L943.078125 894.125L744.678125 894.125 " stroke="#323232" stroke-width="2" fill="none" marker-end="url(#SvgjsMarker1143)"></path></g><g id="SvgjsG1145"><path id="SvgjsPath1146" d="M742.078125 577.25L829.0781250000001 577.25L829.0781250000001 894.125L744.678125 894.125 " stroke="#323232" stroke-width="2" fill="none" marker-end="url(#SvgjsMarker1147)"></path></g><g id="SvgjsG1149" transform="translate(596.078125,969.25)"><path id="SvgjsPath1150" d="M0 4Q0 0 4 0L141 0Q145 0 145 4L145 57Q145 61 141 61L4 61Q0 61 0 57Z " stroke="rgba(50,50,50,1)" stroke-width="2" fill-opacity="1" fill="#ffcdd2"></path><g id="SvgjsG1151"><text id="SvgjsText1152" font-family="微软雅黑" text-anchor="middle" font-size="13px" width="125px" fill="#323232" font-weight="700" align="middle" lineHeight="125%" font-style="" opacity="1" y="19.875" transform="rotate(0)"><tspan id="SvgjsTspan1153" dy="16" x="72.5"><tspan id="SvgjsTspan1154" style="text-decoration:;">Linear(4096)</tspan></tspan></text></g></g><g id="SvgjsG1155" transform="translate(596.078125,1075.625)"><path id="SvgjsPath1156" d="M0 4Q0 0 4 0L141 0Q145 0 145 4L145 57Q145 61 141 61L4 61Q0 61 0 57Z " stroke="rgba(50,50,50,1)" stroke-width="2" fill-opacity="1" fill="#ffcdd2"></path><g id="SvgjsG1157"><text id="SvgjsText1158" font-family="微软雅黑" text-anchor="middle" font-size="13px" width="125px" fill="#323232" font-weight="700" align="middle" lineHeight="125%" font-style="" opacity="1" y="19.875" transform="rotate(0)"><tspan id="SvgjsTspan1159" dy="16" x="72.5"><tspan id="SvgjsTspan1160" style="text-decoration:;">Linear(1024)</tspan></tspan></text></g></g><g id="SvgjsG1161" transform="translate(596.078125,1182)"><path id="SvgjsPath1162" d="M0 4Q0 0 4 0L141 0Q145 0 145 4L145 57Q145 61 141 61L4 61Q0 61 0 57Z " stroke="rgba(50,50,50,1)" stroke-width="2" fill-opacity="1" fill="#ffcdd2"></path><g id="SvgjsG1163"><text id="SvgjsText1164" font-family="微软雅黑" text-anchor="middle" font-size="13px" width="125px" fill="#323232" font-weight="700" align="middle" lineHeight="125%" font-style="" opacity="1" y="19.875" transform="rotate(0)"><tspan id="SvgjsTspan1165" dy="16" x="72.5"><tspan id="SvgjsTspan1166" style="text-decoration:;">Linear(1)</tspan></tspan></text></g></g><g id="SvgjsG1167"><path id="SvgjsPath1168" d="M668.578125 925.625L668.578125 946.9375L668.578125 946.9375L668.578125 965.65 " stroke="#323232" stroke-width="2" fill="none" marker-end="url(#SvgjsMarker1169)"></path></g><g id="SvgjsG1171"><path id="SvgjsPath1172" d="M668.578125 1031.25L668.578125 1052.9375L668.578125 1052.9375L668.578125 1072.025 " stroke="#323232" stroke-width="2" fill="none" marker-end="url(#SvgjsMarker1173)"></path></g><g id="SvgjsG1175"><path id="SvgjsPath1176" d="M668.578125 1137.625L668.578125 1159.3125L668.578125 1159.3125L668.578125 1178.4 " stroke="#323232" stroke-width="2" fill="none" marker-end="url(#SvgjsMarker1177)"></path></g><g id="SvgjsG1179" transform="translate(154.86383928571328,112.14285714285711)"><path id="SvgjsPath1180" d="M0 4Q0 0 4 0L880.4285714285725 0Q884.4285714285725 0 884.4285714285725 4L884.4285714285725 824.5714285714287Q884.4285714285725 828.5714285714287 880.4285714285725 828.5714285714287L4 828.5714285714287Q0 828.5714285714287 0 824.5714285714287Z " stroke-dasharray="10,6" stroke="rgba(50,50,50,0.15)" stroke-width="2" fill-opacity="0.15" fill="#ffffff"></path><g id="SvgjsG1181"><text id="SvgjsText1182" font-family="微软雅黑" text-anchor="middle" font-size="13px" width="865px" fill="#323232" font-weight="400" align="middle" lineHeight="125%" font-style="" opacity="0.15" y="403.66071428571433" transform="rotate(0)"></text></g></g><g id="SvgjsG1183" transform="translate(153.4352678571419,942.4285714285725)"><path id="SvgjsPath1184" d="M0 4Q0 0 4 0L883.2857142857154 0Q887.2857142857154 0 887.2857142857154 4L887.2857142857154 308.857142857142Q887.2857142857154 312.857142857142 883.2857142857154 312.857142857142L4 312.857142857142Q0 312.857142857142 0 308.857142857142Z " stroke-dasharray="10,6" stroke="rgba(50,50,50,0.15)" stroke-width="2" fill-opacity="0.15" fill="#ffffff"></path><g id="SvgjsG1185"><text id="SvgjsText1186" font-family="微软雅黑" text-anchor="middle" font-size="13px" width="868px" fill="#323232" font-weight="400" align="middle" lineHeight="125%" font-style="" opacity="0.15" y="145.803571428571" transform="rotate(0)"></text></g></g><g id="SvgjsG1187" transform="translate(25.006696428571445,467.0000000000002)"><path id="SvgjsPath1188" d="M0 0L120 0L120 40L0 40Z " stroke="none" fill="none"></path><g id="SvgjsG1189"><text id="SvgjsText1190" font-family="微软雅黑" text-anchor="middle" font-size="20px" width="120px" fill="#323232" font-weight="400" align="middle" lineHeight="125%" font-style="" opacity="1" y="2" transform="rotate(0)"><tspan id="SvgjsTspan1191" dy="25" x="60"><tspan id="SvgjsTspan1192" style="text-decoration:;">LSTM</tspan></tspan></text></g></g><g id="SvgjsG1193" transform="translate(25.006696428571473,1105.5714285714282)"><path id="SvgjsPath1194" d="M0 0L120 0L120 40L0 40Z " stroke="none" fill="none"></path><g id="SvgjsG1195"><text id="SvgjsText1196" font-family="微软雅黑" text-anchor="middle" font-size="20px" width="120px" fill="#323232" font-weight="400" align="middle" lineHeight="125%" font-style="" opacity="1" y="2" transform="rotate(0)"><tspan id="SvgjsTspan1197" dy="25" x="60"><tspan id="SvgjsTspan1198" style="text-decoration:;">MLP</tspan></tspan></text></g></g></svg>