<svg id="SvgjsSvg1000" xmlns="http://www.w3.org/2000/svg" version="1.1" xmlns:xlink="http://www.w3.org/1999/xlink" xmlns:svgjs="http://svgjs.com/svgjs" width="547" height="377"><defs id="SvgjsDefs1001"><marker id="SvgjsMarker1033" markerWidth="14" markerHeight="10" refX="4" refY="5" viewBox="0 0 14 10" orient="auto" markerUnits="userSpaceOnUse" stroke-dasharray="0,0"><path id="SvgjsPath1034" d="M14 0L0 5L14 10L14 0 " fill="#323232" stroke="#323232" stroke-width="1"></path></marker><marker id="SvgjsMarker1035" markerWidth="14" markerHeight="10" refX="10" refY="5" viewBox="0 0 14 10" orient="auto" markerUnits="userSpaceOnUse" stroke-dasharray="0,0"><path id="SvgjsPath1036" d="M0 0L14 5L0 10L0 0 " fill="#323232" stroke="#323232" stroke-width="1"></path></marker><marker id="SvgjsMarker1039" markerWidth="14" markerHeight="10" refX="10" refY="5" viewBox="0 0 14 10" orient="auto" markerUnits="userSpaceOnUse" stroke-dasharray="0,0"><path id="SvgjsPath1040" d="M0 0L14 5L0 10L0 0 " fill="#323232" stroke="#323232" stroke-width="1"></path></marker><marker id="SvgjsMarker1043" markerWidth="14" markerHeight="10" refX="10" refY="5" viewBox="0 0 14 10" orient="auto" markerUnits="userSpaceOnUse" stroke-dasharray="0,0"><path id="SvgjsPath1044" d="M0 0L14 5L0 10L0 0 " fill="#323232" stroke="#323232" stroke-width="1"></path></marker><marker id="SvgjsMarker1053" markerWidth="14" markerHeight="10" refX="4" refY="5" viewBox="0 0 14 10" orient="auto" markerUnits="userSpaceOnUse" stroke-dasharray="0,0"><path id="SvgjsPath1054" d="M14 0L0 5L14 10L14 0 " fill="#323232" stroke="#323232" stroke-width="1"></path></marker><marker id="SvgjsMarker1055" markerWidth="14" markerHeight="10" refX="10" refY="5" viewBox="0 0 14 10" orient="auto" markerUnits="userSpaceOnUse" stroke-dasharray="0,0"><path id="SvgjsPath1056" d="M0 0L14 5L0 10L0 0 " fill="#323232" stroke="#323232" stroke-width="1"></path></marker><marker id="SvgjsMarker1059" markerWidth="14" markerHeight="10" refX="10" refY="5" viewBox="0 0 14 10" orient="auto" markerUnits="userSpaceOnUse" stroke-dasharray="0,0"><path id="SvgjsPath1060" d="M0 0L14 5L0 10L0 0 " fill="#323232" stroke="#323232" stroke-width="1"></path></marker></defs><g id="SvgjsG1007" transform="translate(126,150)"><path id="SvgjsPath1008" d="M0 4Q0 0 4 0L96 0Q100 0 100 4L100 66Q100 70 96 70L4 70Q0 70 0 66Z " stroke="rgba(50,50,50,1)" stroke-width="2" fill-opacity="1" fill="#e1bee7"></path><g id="SvgjsG1009"><text id="SvgjsText1010" font-family="微软雅黑" text-anchor="middle" font-size="15px" width="80px" fill="#323232" font-weight="400" align="middle" lineHeight="125%" font-style="" opacity="1" y="23.125" transform="rotate(0)"><tspan id="SvgjsTspan1011" dy="18" x="50"><tspan id="SvgjsTspan1012" style="text-decoration:;">城市A</tspan></tspan></text></g></g><g id="SvgjsG1013" transform="translate(266,150)"><path id="SvgjsPath1014" d="M0 4Q0 0 4 0L96 0Q100 0 100 4L100 66Q100 70 96 70L4 70Q0 70 0 66Z " stroke="rgba(50,50,50,1)" stroke-width="2" fill-opacity="1" fill="#81c784"></path><g id="SvgjsG1015"><text id="SvgjsText1016" font-family="微软雅黑" text-anchor="middle" font-size="15px" width="80px" fill="#323232" font-weight="400" align="middle" lineHeight="125%" font-style="" opacity="1" y="23.125" transform="rotate(0)"><tspan id="SvgjsTspan1017" dy="18" x="50"><tspan id="SvgjsTspan1018" style="text-decoration:;">城市B</tspan></tspan></text></g></g><g id="SvgjsG1019" transform="translate(406,150)"><path id="SvgjsPath1020" d="M0 4Q0 0 4 0L96 0Q100 0 100 4L100 66Q100 70 96 70L4 70Q0 70 0 66Z " stroke="rgba(50,50,50,1)" stroke-width="2" fill-opacity="1" fill="#ffb74d"></path><g id="SvgjsG1021"><text id="SvgjsText1022" font-family="微软雅黑" text-anchor="middle" font-size="15px" width="80px" fill="#323232" font-weight="400" align="middle" lineHeight="125%" font-style="" opacity="1" y="23.125" transform="rotate(0)"><tspan id="SvgjsTspan1023" dy="18" x="50"><tspan id="SvgjsTspan1024" style="text-decoration:;">城市B-test</tspan></tspan></text></g></g><g id="SvgjsG1025" transform="translate(141,30)"><path id="SvgjsPath1026" d="M0 35C0 -11.666666666666666 70 -11.666666666666666 70 35C70 81.66666666666667 0 81.66666666666667 0 35Z " stroke="rgba(50,50,50,1)" stroke-width="2" fill-opacity="1" fill="#bbdefb"></path><g id="SvgjsG1027"><text id="SvgjsText1028" font-family="微软雅黑" text-anchor="middle" font-size="15px" width="50px" fill="#323232" font-weight="400" align="middle" lineHeight="125%" font-style="" opacity="1" y="23.125" transform="rotate(0)"><tspan id="SvgjsTspan1029" dy="18" x="35"><tspan id="SvgjsTspan1030" style="text-decoration:;">模型1</tspan></tspan></text></g></g><g id="SvgjsG1031"><path id="SvgjsPath1032" d="M176 103.6L176 125L176 125L176 146.4 " stroke="#323232" stroke-width="2" fill="none" marker-start="url(#SvgjsMarker1033)" marker-end="url(#SvgjsMarker1035)"></path></g><g id="SvgjsG1037"><path id="SvgjsPath1038" d="M212 65L316 65L316 146.4 " stroke="#323232" stroke-width="2" fill="none" marker-end="url(#SvgjsMarker1039)"></path></g><g id="SvgjsG1041"><path id="SvgjsPath1042" d="M212 65L456 65L456 146.4 " stroke="#323232" stroke-width="2" fill="none" marker-end="url(#SvgjsMarker1043)"></path></g><g id="SvgjsG1045" transform="translate(281,270)"><path id="SvgjsPath1046" d="M0 35C0 -11.666666666666666 70 -11.666666666666666 70 35C70 81.66666666666667 0 81.66666666666667 0 35Z " stroke="rgba(50,50,50,1)" stroke-width="2" fill-opacity="1" fill="#e57373"></path><g id="SvgjsG1047"><text id="SvgjsText1048" font-family="微软雅黑" text-anchor="middle" font-size="15px" width="50px" fill="#323232" font-weight="400" align="middle" lineHeight="125%" font-style="" opacity="1" y="23.125" transform="rotate(0)"><tspan id="SvgjsTspan1049" dy="18" x="35"><tspan id="SvgjsTspan1050" style="text-decoration:;">模型2</tspan></tspan></text></g></g><g id="SvgjsG1051"><path id="SvgjsPath1052" d="M316 266.4L316 245L316 245L316 223.6 " stroke="#323232" stroke-width="2" fill="none" marker-start="url(#SvgjsMarker1053)" marker-end="url(#SvgjsMarker1055)"></path></g><g id="SvgjsG1057"><path id="SvgjsPath1058" d="M352 305L456 305L456 223.6 " stroke="#323232" stroke-width="2" fill="none" marker-end="url(#SvgjsMarker1059)"></path></g><g id="SvgjsG1061" transform="translate(110.5,25)"><path id="SvgjsPath1062" d="M0 4Q0 0 4 0L407 0Q411 0 411 4L411 210Q411 214 407 214L4 214Q0 214 0 210Z " stroke-dasharray="10,6,3,6" stroke="rgba(50,50,50,0.15)" stroke-width="2" fill-opacity="0.15" fill="#ffffff"></path><g id="SvgjsG1063"><text id="SvgjsText1064" font-family="微软雅黑" text-anchor="middle" font-size="13px" width="391px" fill="#323232" font-weight="400" align="middle" lineHeight="125%" font-style="" opacity="0.15" y="96.375" transform="rotate(0)"></text></g></g><g id="SvgjsG1065" transform="translate(25,106)"><path id="SvgjsPath1066" d="M0 0L120 0L120 40L0 40Z " stroke="none" fill="none"></path><g id="SvgjsG1067"><text id="SvgjsText1068" font-family="微软雅黑" text-anchor="middle" font-size="13px" width="120px" fill="#323232" font-weight="400" align="middle" lineHeight="125%" font-style="" opacity="1" y="9.375" transform="rotate(0)"><tspan id="SvgjsTspan1069" dy="16" x="60"><tspan id="SvgjsTspan1070" style="text-decoration:;">第1阶段</tspan></tspan></text></g></g><g id="SvgjsG1071" transform="translate(256,136)"><path id="SvgjsPath1072" d="M0 4Q0 0 4 0L262 0Q266 0 266 4L266 212Q266 216 262 216L4 216Q0 216 0 212Z " stroke-dasharray="3,4" stroke="rgba(50,50,50,0.1)" stroke-width="2" fill-opacity="0.1" fill="#ffffff"></path><g id="SvgjsG1073"><text id="SvgjsText1074" font-family="微软雅黑" text-anchor="middle" font-size="13px" width="246px" fill="#323232" font-weight="400" align="middle" lineHeight="125%" font-style="" opacity="0.1" y="97.375" transform="rotate(0)"></text></g></g><g id="SvgjsG1075" transform="translate(167,270)"><path id="SvgjsPath1076" d="M0 0L120 0L120 40L0 40Z " stroke="none" fill="none"></path><g id="SvgjsG1077"><text id="SvgjsText1078" font-family="微软雅黑" text-anchor="middle" font-size="13px" width="120px" fill="#323232" font-weight="400" align="middle" lineHeight="125%" font-style="" opacity="1" y="9.375" transform="rotate(0)"><tspan id="SvgjsTspan1079" dy="16" x="60"><tspan id="SvgjsTspan1080" style="text-decoration:;">第2阶段</tspan></tspan></text></g></g></svg>