<svg id="SvgjsSvg1000" xmlns="http://www.w3.org/2000/svg" version="1.1" xmlns:xlink="http://www.w3.org/1999/xlink" xmlns:svgjs="http://svgjs.com/svgjs" width="764" height="262"><defs id="SvgjsDefs1001"><marker id="SvgjsMarker1009" markerWidth="14" markerHeight="10" refX="10" refY="5" viewBox="0 0 14 10" orient="auto" markerUnits="userSpaceOnUse" stroke-dasharray="0,0"><path id="SvgjsPath1010" d="M0 0L14 5L0 10L0 0 " fill="#323232" stroke="#323232" stroke-width="1"></path></marker></defs><g id="SvgjsG1007"><path id="SvgjsPath1008" d="M25 143L345 143L345 143L665 143 " stroke="#323232" stroke-width="2" fill="none" marker-end="url(#SvgjsMarker1009)"></path></g><g id="SvgjsG1011" transform="translate(619,157)"><path id="SvgjsPath1012" d="M0 0L120 0L120 40L0 40Z " stroke="none" fill="none"></path><g id="SvgjsG1013"><text id="SvgjsText1014" font-family="微软雅黑" text-anchor="middle" font-size="20px" width="120px" fill="#323232" font-weight="400" align="middle" lineHeight="125%" font-style="" opacity="1" y="2" transform="rotate(0)"><tspan id="SvgjsTspan1015" dy="25" x="60"><tspan id="SvgjsTspan1016" style="text-decoration:;">Time</tspan></tspan></text></g></g><g id="SvgjsG1017" transform="matrix(-1.8369701987210297e-16,-1,1,-1.8369701987210297e-16,362.5,129.5)"><path id="SvgjsPath1018" d="M0 19.250000000000014L19.250000000000014 0L19.250000000000014 12.70500000000001L66.5 12.70500000000001L66.5 25.79500000000002L19.250000000000014 25.79500000000002L19.250000000000014 38.50000000000003L0 19.250000000000014Z " stroke="rgba(50,50,50,1)" stroke-width="2" fill-opacity="1" fill="#ffffff"></path><g id="SvgjsG1019"><text id="SvgjsText1020" font-family="微软雅黑" text-anchor="middle" font-size="13px" width="67px" fill="#323232" font-weight="400" align="middle" lineHeight="125%" font-style="" opacity="1" y="8.625000000000016" transform="rotate(0)"></text></g></g><g id="SvgjsG1021" transform="translate(322,25)"><path id="SvgjsPath1022" d="M0 0L120 0L120 40L0 40Z " stroke="none" fill="none"></path><g id="SvgjsG1023"><text id="SvgjsText1024" font-family="微软雅黑" text-anchor="middle" font-size="20px" width="120px" fill="#323232" font-weight="400" align="middle" lineHeight="125%" font-style="" opacity="1" y="2" transform="rotate(0)"><tspan id="SvgjsTspan1025" dy="25" x="60"><tspan id="SvgjsTspan1026" style="text-decoration:;">Now</tspan></tspan></text></g></g><g id="SvgjsG1027" transform="matrix(6.123233995736766e-17,1,-1,6.123233995736766e-17,377,154.0000000000001)"><path id="SvgjsPath1028" d="M0 283.0000000000001Q8.099999999999989 283.0000000000001 8.099999999999989 274.0000000000001L8.099999999999989 150.50000000000006Q8.099999999999989 141.50000000000006 22 141.50000000000006Q8.099999999999989 141.50000000000006 8.099999999999989 132.50000000000006L8.099999999999989 9Q8.099999999999989 0 0 0 " stroke="rgba(50,50,50,1)" stroke-width="2" fill="none"></path><path id="SvgjsPath1029" d="M0 0L80.99999999999989 0L80.99999999999989 283.0000000000001L0 283.0000000000001Z " stroke="none" fill="none"></path><g id="SvgjsG1030"><text id="SvgjsText1031" font-family="微软雅黑" text-anchor="start" font-size="13px" width="54px" fill="#323232" font-weight="400" align="middle" lineHeight="125%" font-style="" opacity="1" y="130.87500000000006" transform="rotate(0)"></text></g></g><g id="SvgjsG1032" transform="matrix(6.123233995736766e-17,1,-1,6.123233995736766e-17,538.9999999999999,154.0000000000001)"><path id="SvgjsPath1033" d="M0 145.99999999999997Q8.299999999999978 145.99999999999997 8.299999999999978 136.99999999999997L8.299999999999978 81.99999999999999Q8.299999999999978 72.99999999999999 22 72.99999999999999Q8.299999999999978 72.99999999999999 8.299999999999978 63.999999999999986L8.299999999999978 9Q8.299999999999978 0 0 0 " stroke="rgba(50,50,50,1)" stroke-width="2" fill="none"></path><path id="SvgjsPath1034" d="M0 0L82.99999999999977 0L82.99999999999977 145.99999999999997L0 145.99999999999997Z " stroke="none" fill="none"></path><g id="SvgjsG1035"><text id="SvgjsText1036" font-family="微软雅黑" text-anchor="start" font-size="13px" width="56px" fill="#323232" font-weight="400" align="middle" lineHeight="125%" font-style="" opacity="1" y="62.374999999999986" transform="rotate(0)"></text></g></g><g id="SvgjsG1037" transform="translate(128.4999999999999,185)"><path id="SvgjsPath1038" d="M0 0L229.5000000000001 0L229.5000000000001 44L0 44Z " stroke="none" fill="none"></path><g id="SvgjsG1039"><text id="SvgjsText1040" font-family="微软雅黑" text-anchor="middle" font-size="20px" width="230px" fill="#323232" font-weight="400" align="middle" lineHeight="125%" font-style="" opacity="1" y="4" transform="rotate(0)"><tspan id="SvgjsTspan1041" dy="25" x="115"><tspan id="SvgjsTspan1042" style="text-decoration:;">Historical ONU KPI data</tspan></tspan></text></g></g><g id="SvgjsG1043" transform="translate(409,187)"><path id="SvgjsPath1044" d="M0 0L120 0L120 40L0 40Z " stroke="none" fill="none"></path><g id="SvgjsG1045"><text id="SvgjsText1046" font-family="微软雅黑" text-anchor="middle" font-size="20px" width="120px" fill="#323232" font-weight="400" align="middle" lineHeight="125%" font-style="" opacity="1" y="2" transform="rotate(0)"><tspan id="SvgjsTspan1047" dy="25" x="60"><tspan id="SvgjsTspan1048" style="text-decoration:;">Fault?</tspan></tspan></text></g></g></svg>